<svg xmlns="http://www.w3.org/2000/svg" viewBox="0 0 480 400"><defs><style>.cls-1{fill:#321200;}.cls-2{fill:#fff200;}.cls-3{fill:none;stroke:#fff200;stroke-linecap:round;stroke-linejoin:round;stroke-width:2px;}.cls-4,.cls-7{opacity:0.2;fill:#c5122f;font-family:MicrosoftYaHei-Bold, Microsoft YaHei;font-weight:700;}.cls-4{font-size:16px;}.cls-5,.cls-8{font-size:25.6px;font-family:Gilroy-ExtraBold, Gilroy-ExtraBold;}.cls-5{letter-spacing:-0.01em;}.cls-6{letter-spacing:0.02em;}.cls-7{font-size:15.98px;}.cls-8{letter-spacing:0.02em;}</style></defs><title>bg-mobile</title><g id="Layer_2" data-name="Layer 2"><g id="Layer_7" data-name="Layer 7"><g id="bg"><path id="gate" class="cls-1" d="M375.57,71.68s3.67,0,3.67-6.57V46.44H399.9L414.45,32l17.38-1.17L460,0S322.58,13.11,240,13.18,20,0,20,0L48.17,30.83,65.55,32,80.1,46.44h20.66V65.11c0,6.57,3.67,6.57,3.67,6.57,0,7.53,5.1,7.53,5.1,7.53V90.13l-10.65-5v5H62.57v19.45h47l-9.39,177.49-4.56.11L93.25,320h37.08V287.18h-5.86l5.86-177.91H349.67l5.86,177.91h-5.86V320h37.08l-2.33-32.82-4.56-.11-9.39-177.49h47V90.13H381.12v-5l-10.65,5V79.21S375.57,79.21,375.57,71.68ZM348.41,89.31,338,85.07l-.12,5.18H252.78V67.54H227.22V90.25H142.08L142,85.07l-10.37,4.24V79.21s5.95,0,5.95-7.53c0,0,5,0,5-6.57V46.6h194.9V65.11c0,6.57,5,6.57,5,6.57,0,7.53,6,7.53,6,7.53Z"/><path class="cls-1" d="M0,324.88V400H480V328.31C316.93,305.05,163,304,0,324.88Z"/></g><g id="login-btn"><path class="cls-2" d="M317.37,180.8s-44,2.61-77.37,2.61-77.35-2.61-77.35-2.61V138.7s35.93,1.1,78.71,1.1,76-1.1,76-1.1Z"/><path class="cls-3" d="M350.55,136c-33.07,4.86-188,5.17-221.11.31"/><text class="cls-4" transform="translate(233.36 157.4)">登<tspan x="0" y="17.6">录</tspan></text><text class="cls-5" transform="translate(202.18 169.32)">L<tspan class="cls-6" x="11.9" y="0">OGIN</tspan></text></g><g id="signup-btn"><path class="cls-2" d="M317.37,252.79s-44,2.61-77.37,2.61-77.35-2.61-77.35-2.61v-42.1s35.93,1.1,78.71,1.1,76-1.1,76-1.1Z"/><path class="cls-3" d="M352.92,208c-33.07,4.86-192.78,5.17-225.85.31"/><text class="cls-7" transform="translate(233.35 229.43)">注<tspan x="0" y="17.58">册</tspan></text><text class="cls-8" transform="translate(194.27 241.32)">S<tspan class="cls-6" x="15.49" y="0">IGNUP</tspan></text></g></g></g></svg>