<svg xmlns="http://www.w3.org/2000/svg" viewBox="0 0 550 400"><defs><style>.cls-1{fill:#321200;}.cls-2{fill:#fff200;}.cls-3{fill:none;stroke:#fff200;stroke-linecap:round;stroke-linejoin:round;stroke-width:2px;}.cls-4,.cls-7{opacity:0.2;fill:#c5122f;font-family:MicrosoftYaHei-Bold, Microsoft YaHei;font-weight:700;}.cls-4{font-size:20px;}.cls-5,.cls-8{font-size:32px;font-family:Gilroy-ExtraBold, Gilroy-ExtraBold;}.cls-5{letter-spacing:-0.01em;}.cls-6{letter-spacing:0.02em;}.cls-7{font-size:19.97px;}.cls-8{letter-spacing:0.02em;}</style></defs><title>form</title><g id="Layer_2" data-name="Layer 2"><g id="gateway"><path id="gate" class="cls-1" d="M444.47,89.6s4.58,0,4.58-8.22V58.05h25.82l18.2-18,21.71-1.47L550,0S378.22,16.38,275,16.47C171.78,16.38,0,0,0,0L35.22,38.54,56.93,40l18.2,18H101V81.38c0,8.22,4.58,8.22,4.58,8.22,0,9.41,6.38,9.41,6.38,9.41v13.65L98.6,106.39v6.27H53.21V137h58.7L100.17,358.84l-5.69.13-2.92,41h46.36V359h-7.33l7.33-222.38H412.08L419.41,359h-7.33v41h46.36l-2.92-41-5.69-.13L438.09,137h58.7V112.66H451.4v-6.27l-13.31,6.27V99S444.47,99,444.47,89.6Zm-34,22-13-5.29-.15,6.47H291V84.42H259v28.39H152.6l-.15-6.47-13,5.29V99s7.44,0,7.44-9.41c0,0,6.26,0,6.26-8.22V58.24H396.81V81.38c0,8.22,6.26,8.22,6.26,8.22,0,9.41,7.44,9.41,7.44,9.41Z"/><g id="login-btn"><path class="cls-2" d="M371.72,226s-55.05,3.27-96.72,3.27S178.31,226,178.31,226V173.38s44.92,1.37,98.39,1.37,95-1.37,95-1.37Z"/><path class="cls-3" d="M413.18,170c-41.33,6.08-235,6.47-276.38.39"/><text class="cls-4" transform="translate(266.7 196.75)">登<tspan x="0" y="22">录</tspan></text><text class="cls-5" transform="translate(227.73 211.66)">L<tspan class="cls-6" x="14.88" y="0">OGIN</tspan></text></g><g id="signup-btn"><path class="cls-2" d="M371.72,316s-55.05,3.27-96.72,3.27S178.31,316,178.31,316V263.37s44.92,1.37,98.39,1.37,95-1.37,95-1.37Z"/><path class="cls-3" d="M416.15,260c-41.34,6.08-241,6.47-282.31.39"/><text class="cls-7" transform="translate(266.69 286.79)">注<tspan x="0" y="21.97">册</tspan></text><text class="cls-8" transform="translate(217.84 301.66)">S<tspan class="cls-6" x="19.36" y="0">IGNUP</tspan></text></g></g></g></svg>